<svg xmlns="http://www.w3.org/2000/svg" xmlns:xlink="http://www.w3.org/1999/xlink" width="30" height="30" preserveAspectRatio="xMidYMid meet" viewBox="0 0 20 20" style="-ms-transform: rotate(360deg); -webkit-transform: rotate(360deg); transform: rotate(360deg);"><path d="M5 17h13v2H5c-1.66 0-3-1.34-3-3V4c0-1.66 1.34-3 3-3h13v14H5c-.55 0-1 .45-1 1s.45 1 1 1zm2-3.5v-11c0-.28-.22-.5-.5-.5s-.5.22-.5.5v11c0 .28.22.5.5.5s.5-.22.5-.5z" fill="gray"/><rect x="0" y="0" width="20" height="20" fill="rgba(0, 0, 0, 0)" /></svg>