<svg id="Capa_1" enable-background="new 0 0 512 512" height="512" viewBox="0 0 512 512" width="512" xmlns="http://www.w3.org/2000/svg"><g><path d="m497 0h-482c-8.284 0-15 6.716-15 15v482c0 8.284 6.716 15 15 15h482c8.284 0 15-6.716 15-15v-482c0-8.284-6.716-15-15-15zm-105.5 30h69.287l-69.287 69.287zm0 141.713 69.287 69.287h-69.287zm-30-141.713v69.287l-69.287-69.287zm-69.287 211 69.287-69.287v69.287zm48.074 30-69.287 69.287v-69.287zm-189.787-241h69.287l-69.287 69.287zm0 141.713 69.287 69.287h-69.287zm-30-141.713v69.287l-69.287-69.287zm-90.5 21.213 84.287 84.287-84.287 84.287zm90.5 120.5v69.287h-69.287zm-90.5 99.287h69.287l-69.287 69.287zm0 211v-69.287l69.287 69.287zm6.213-105.5 99.287-99.287 99.287 99.287-99.287 99.287zm204.787 105.5h-69.287l69.287-69.287zm0-141.713-69.287-69.287h69.287zm-84.287-204.787 99.287-99.287 99.287 99.287-99.287 99.287zm114.287 346.5v-69.287l69.287 69.287zm6.213-105.5 99.287-99.287 99.287 99.287-99.287 99.287zm204.787 105.5h-69.287l69.287-69.287zm0-141.713-69.287-69.287h69.287zm0-120.5-84.287-84.287 84.287-84.287z"/></g></svg>