<svg height="462pt" viewBox="0 -20 462 462" width="462pt" xmlns="http://www.w3.org/2000/svg"><path d="m419.667969 64h-93.667969v-20.285156c0-24.066406-19.152344-43.714844-42.308594-43.714844h-105.382812c-23.15625 0-42.308594 19.648438-42.308594 43.714844v20.285156h-93.667969c-23.15625 0-42.332031 19.214844-42.332031 43.28125v271.003906c0 24.066406 19.175781 43.714844 42.332031 43.714844h377.335938c23.15625 0 42.332031-19.648438 42.332031-43.714844v-271c0-24.070312-19.175781-43.285156-42.332031-43.285156zm-267.667969-20.285156c0-15.242188 11.976562-27.714844 26.308594-27.714844h105.382812c14.332032 0 26.308594 12.472656 26.308594 27.714844v20.285156h-158zm267.667969 362.285156h-377.335938c-14.332031 0-26.332031-12.472656-26.332031-27.714844v-154.574218c7.433594 6.058593 16.742188 9.34375 26.332031 9.289062h103.667969v24c.023438 20.976562 17.023438 37.976562 38 38h94c20.976562-.023438 37.976562-17.023438 38-38v-24h103.667969c9.589843.054688 18.898437-3.230469 26.332031-9.289062v154.574218c0 15.242188-12 27.714844-26.332031 27.714844zm-257.667969-173h138v24c-.015625 12.144531-9.855469 21.984375-22 22h-94c-12.144531-.015625-21.984375-9.855469-22-22zm284-43.527344c0 15.242188-12 27.527344-26.332031 27.527344h-377.335938c-14.332031 0-26.332031-12.285156-26.332031-27.53125v-82.1875c0-15.246094 12-27.28125 26.332031-27.28125h377.335938c14.332031 0 26.332031 12.035156 26.332031 27.28125zm0 0"/><path d="m265 137h-68c-4.417969 0-8 3.582031-8 8s3.582031 8 8 8h68c4.417969 0 8-3.582031 8-8s-3.582031-8-8-8zm0 0"/></svg>